<svg id="Layer_1" data-name="Layer 1" xmlns="http://www.w3.org/2000/svg" viewBox="0 0 19.56 18.7"><defs><style>.cls-1{fill:#313c42;}.cls-2{fill:#e63b35;}.cls-3{fill:#465b65;}.cls-4,.cls-6{fill:#fff;}.cls-5{fill:#f3f3f3;}.cls-6{opacity:0.2;isolation:isolate;}</style></defs><title>pokeball</title><g id="pokeball"><path class="cls-1" d="M9.78,0a9.35,9.35,0,1,0,9.35,9.35A9.36,9.36,0,0,0,9.78,0Z"/><path class="cls-2" d="M9.78.78a8.58,8.58,0,0,1,8.53,7.71A23.06,23.06,0,0,1,13.64,9,3.87,3.87,0,0,0,5.93,9a23.1,23.1,0,0,1-4.68-.46A8.58,8.58,0,0,1,9.78.78Z"/><circle class="cls-3" cx="9.78" cy="9.35" r="3.12"/><path class="cls-4" d="M9.78,17.92A8.59,8.59,0,0,1,1.21,9.35V9.28a24.79,24.79,0,0,0,4.71.45,3.88,3.88,0,0,0,7.72,0,24.79,24.79,0,0,0,4.71-.45v.07A8.58,8.58,0,0,1,9.78,17.92Z"/><circle class="cls-1" cx="9.78" cy="9.35" r="2.34"/><circle class="cls-5" cx="9.78" cy="9.35" r="1.56"/><path class="cls-6" d="M8.53,9.82a1.56,1.56,0,0,1,2.69-1.07,1.56,1.56,0,1,0-2.57,1.66A1.45,1.45,0,0,1,8.53,9.82Z"/></g></svg>